<svg width="17" height="17" viewBox="0 0 17 17" fill="none" xmlns="http://www.w3.org/2000/svg">
<path d="M12.3048 11.659L8.07057 15.9102L3.81945 11.676C2.97867 10.8385 2.4051 9.77056 2.17128 8.60714C1.93745 7.44372 2.05387 6.23709 2.50581 5.13984C2.95775 4.04258 3.72491 3.10398 4.71029 2.44273C5.69566 1.78148 6.85499 1.42727 8.04168 1.42491C9.22836 1.42254 10.3891 1.77212 11.3771 2.42943C12.3651 3.08675 13.136 4.02228 13.5923 5.11772C14.0486 6.21317 14.1699 7.41932 13.9407 8.58367C13.7115 9.74801 13.1422 10.8182 12.3048 11.659ZM8.05896 10.0915C8.76621 10.0901 9.44392 9.80779 9.94302 9.3067C10.4421 8.8056 10.7217 8.12677 10.7203 7.41952C10.7189 6.71228 10.4366 6.03457 9.9355 5.53547C9.4344 5.03637 8.75557 4.75677 8.04833 4.75818C7.34108 4.75959 6.66337 5.0419 6.16427 5.54299C5.66517 6.04408 5.38557 6.72292 5.38698 7.43016C5.38839 8.1374 5.6707 8.81512 6.17179 9.31422C6.67289 9.81332 7.35172 10.0929 8.05896 10.0915ZM8.0563 8.75817C7.70268 8.75888 7.36327 8.61908 7.11272 8.36953C6.86217 8.11998 6.72102 7.78112 6.72031 7.4275C6.71961 7.07388 6.85941 6.73446 7.10896 6.48392C7.35851 6.23337 7.69736 6.09222 8.05099 6.09151C8.40461 6.09081 8.74402 6.23061 8.99457 6.48015C9.24512 6.7297 9.38627 7.06856 9.38698 7.42218C9.38768 7.7758 9.24788 8.11522 8.99833 8.36577C8.74878 8.61632 8.40993 8.75747 8.0563 8.75817Z" fill="#0DAFC0"/>
</svg>
